/* XPM */
static char *_a3e028a1b7f4d5fe637d8391830a5bbycbY7rD8ZtmJtA6c[] = {
/* columns rows colors chars-per-pixel */
"48 48 3 1 ",
"  c None",
". c gray3",
"X c #FF5640",
/* pixels */
"                                                ",
"                                                ",
"                                                ",
"                                                ",
"                                                ",
"                       ..                       ",
"                       ..                       ",
"                       ..                       ",
"                     ......                     ",
"                  ............                  ",
"                ....   ..   ....                ",
"              ...      ..      ..               ",
"             ...       ..                       ",
"            ...                                 ",
"           ...                                  ",
"           ..                       .           ",
"          ..                        ..          ",
"          .                          .          ",
"         ..                          ..         ",
"         ..           XXXX           ..         ",
"         .           XXXXXX           .         ",
"        ..          XX    XX          ..        ",
"        ..         XX      XX         ..        ",
"     ........      XX      XX      ........     ",
"     ........      XX      XX      ........     ",
"        ..         XX      XX         ..        ",
"        ..          XX    XX          ..        ",
"         .           XXXXXX           .         ",
"         ..           XXXX           ..         ",
"         ..                          ..         ",
"          .                          .          ",
"          ..                        ..          ",
"           ..                      ..           ",
"           ...                    ...           ",
"            ...                  ...            ",
"             ...       ..       ...             ",
"              ...      ..      ...              ",
"                ....   ..   ....                ",
"                  ............                  ",
"                     ......                     ",
"                       ..                       ",
"                       ..                       ",
"                       ..                       ",
"                                                ",
"                                                ",
"                                                ",
"                                                ",
"                                                "
};
