/* XPM */
static char *fc1dfb52e2cb45a7b24508ca3edc14d8lQjGNVtIRE5GDsFI[] = {
/* columns rows colors chars-per-pixel */
"30 30 147 2 ",
"   c None",
".  c #0E0D0F",
"X  c #180F0E",
"o  c #17100E",
"O  c #1D110F",
"+  c #0E0D13",
"@  c #0D0E1A",
"#  c #110F13",
"$  c #100F19",
"%  c #0E101D",
"&  c #141115",
"*  c #1A1414",
"=  c #1E1916",
"-  c #14131B",
";  c #1A151B",
":  c #1C181E",
">  c #22130F",
",  c #231614",
"<  c #2C1711",
"1  c #251B14",
"2  c #2A1B13",
"3  c #221618",
"4  c #231A1C",
"5  c #2B1A1B",
"6  c #321B13",
"7  c #3C1D11",
"8  c #2B2017",
"9  c #2F241F",
"0  c #342112",
"q  c #3B2414",
"w  c #3B2917",
"e  c #37251D",
"r  c #372A1E",
"t  c #0E1223",
"y  c #131524",
"u  c #191721",
"i  c #161826",
"p  c #1C1B23",
"a  c #12172A",
"s  c #14192C",
"d  c #1B1D2D",
"f  c #151C32",
"g  c #191E33",
"h  c #161E39",
"j  c #211E23",
"k  c #221F28",
"l  c #1D202E",
"z  c #1C2134",
"x  c #1C243B",
"c  c #262126",
"v  c #2B2221",
"b  c #23222B",
"n  c #3F2F2B",
"m  c #232434",
"M  c #2C2832",
"N  c #21273B",
"B  c #23293E",
"V  c #2B2C3E",
"C  c #49270E",
"Z  c #432414",
"A  c #4A2B13",
"S  c #442C18",
"D  c #4F3515",
"F  c #563111",
"G  c #5F3216",
"H  c #633512",
"J  c #473025",
"K  c #513627",
"L  c #5A3B27",
"P  c #503528",
"I  c #764514",
"U  c #7A4A13",
"Y  c #67422B",
"T  c #6E462B",
"R  c #72482C",
"E  c #7D4F2F",
"W  c #794E30",
"Q  c #1F2742",
"!  c #252C43",
"~  c #282F41",
"^  c #272E48",
"/  c #282F49",
"(  c #293047",
")  c #263049",
"_  c #2C344B",
"`  c #31394F",
"'  c #2F3850",
"]  c #343C54",
"[  c #3B435B",
"{  c #3C4761",
"}  c #414960",
"|  c #404861",
" . c #414961",
".. c #424A61",
"X. c #434B63",
"o. c #444C63",
"O. c #414C66",
"+. c #424C66",
"@. c #444C65",
"#. c #464E64",
"$. c #444D66",
"%. c #474F66",
"&. c #444E69",
"*. c #474F68",
"=. c #485067",
"-. c #47516C",
";. c #495168",
":. c #4A5168",
">. c #4A5369",
",. c #49516A",
"<. c #4B536A",
"1. c #48526D",
"2. c #4B536C",
"3. c #49536E",
"4. c #49546E",
"5. c #4D556D",
"6. c #4E566D",
"7. c #4E556E",
"8. c #4F566E",
"9. c #50586F",
"0. c #50586E",
"q. c #4A5571",
"w. c #4B5671",
"e. c #4B5773",
"r. c #4F5771",
"t. c #4F5871",
"y. c #4C5873",
"u. c #4F5973",
"i. c #4B5976",
"p. c #4C5874",
"a. c #4D5875",
"s. c #4E5974",
"d. c #4F5A75",
"f. c #4D5976",
"g. c #4D5A76",
"h. c #4D5B77",
"j. c #4E5B77",
"k. c #4D5B78",
"l. c #4E5C79",
"z. c #505870",
"x. c #515872",
"c. c #515C76",
"v. c #5E677D",
"b. c #965912",
"n. c #8E5A31",
"m. c #935B31",
"M. c #A16334",
/* pixels */
"                      ..o.=.=.<.5.6.6.                      ",
"                [ [ [ } ..=.=.=.1.6.6.6.0.x.                ",
"              ] ] [ [ | =.@.,.0.6.0.0.0.x.x.w.              ",
"          _ ` ` ] ] [ | ] ] =.,.] [ 4.4.@.O.u.u.c.          ",
"        _ _ _ _ ` ] [ [ _ ` _ _ ^ Q _ ' ! ] w.a.f.f.        ",
"      ) _ ) ( _ _ ] ] ~ N z x Q Q x h h ] 1.w.w.w.f.l.      ",
"      ^ ) / _ _ _ ` x s a f h x f a a f ] { 1.q.q.f.f.      ",
"    ! ^ / / / / ( N f a a a h a t a a a Q ' &.-.1.q.f.j.    ",
"  B N ! ! ! ! ) m p z d t y a a a a a f f Q +.1.1.4.i.f.i.  ",
"  x x N N ! ! ) z i g y $ y t @ t t t a f h <.v.u.u.c.f.f.  ",
"  z x N N ! N ^ B u i - $ $ @ u y t @ t t a N _ ] [ ] ] {   ",
"z z z x N N N ! ! p ; $ $ 4 P T J t @ @ t a h ~ z - s N ( ^ ",
"z z z z x N N V ~ d - ; J E m.M.E y @ @ y f d s % a z z f f ",
"l z z z m z N z m B m K E Y n.n.j y y y % % - y a s s s g g ",
"s l l l l l l - $ - m n L ; 5 4 @ y @ - @ + % - s y a s a g ",
"l l - % & % + + + & u m j u : @ @ @ + @ @ @ % p i y y i a s ",
"& # + + . . . + # # - & @ - & # + + + + + @ % y u i a a y a ",
"& + + . + . . . . . . # . # # . + + + + + + - @ m ~ i u y u ",
"l l . # + + + + # & ; : : ; & # + + # + # $ i d N m y y u i ",
"  ; : : + . + + . - l m M M : # # + + - & $ u m M k $ y u   ",
"  & - - - & # . . # : b m b & + # # - ; ; ; * u k k $ u ;   ",
"  1 8 = - ; ; - & + & l b & & & - # X - * 5 3 ; u ; 3 3 ;   ",
"    D w 8 - - ; ; ; ; : * : c : 3 6 3 ; & 3 & & $ ; 5 3     ",
"      = r w 8 = ; - ; ; ; ; = ; ; 5 Z 3 - & & & & 6 6       ",
"      : : 9 H A 1 * - ; - = - * X X * 3 * & * & , 7 X       ",
"        l : r G S q 1 * * = 1 = 3 & & * * * * , < X         ",
"          p l 8 l 8 0 0 o o * * , , O X * * 2 7 >           ",
"              l = l = O o = = o 2 6 3 X O > Z               ",
"                j j 8 o 8 D C F Z 6 6 2 O >                 ",
"                      0 U b.U I F C H                       "
};
