/* XPM */
static char *player_1_20x201679957570[] = {
/* columns rows colors chars-per-pixel */
"20 20 116 2 ",
"   c #040307",
".  c #0C0203",
"X  c #03040C",
"o  c #09060F",
"O  c #0D0C0D",
"+  c #160C0D",
"@  c #1B0E0D",
"#  c #0E100F",
"$  c #12130D",
"%  c #1E140D",
"&  c #000616",
"*  c #0D0D12",
"=  c #0A0D1B",
"-  c #110D13",
";  c #180F10",
":  c #100D18",
">  c #0F1113",
",  c #0F131D",
"<  c #141214",
"1  c #1B1314",
"2  c #171916",
"3  c #1B1915",
"4  c #14131B",
"5  c #1B161B",
"6  c #1C1A1D",
"7  c #210F0D",
"8  c #2A1407",
"9  c #23120C",
"0  c #2E170F",
"q  c #24190F",
"w  c #2D1A0D",
"e  c #351A0F",
"r  c #221413",
"t  c #291514",
"y  c #221914",
"u  c #2D1B13",
"i  c #231D1D",
"p  c #2B1F1F",
"a  c #2C2014",
"s  c #2B201A",
"d  c #312315",
"f  c #3C2712",
"g  c #31241D",
"h  c #39251A",
"j  c #0D1225",
"k  c #0C142C",
"l  c #141524",
"z  c #1A1621",
"x  c #161925",
"c  c #1B1B24",
"v  c #101528",
"b  c #161A2B",
"n  c #1A1C2B",
"m  c #0D1C33",
"M  c #151C33",
"N  c #1A1F31",
"B  c #191F3A",
"V  c #211D22",
"C  c #201E29",
"Z  c #1E2226",
"A  c #1D2336",
"S  c #1D243A",
"D  c #2B2120",
"F  c #23212B",
"G  c #302923",
"H  c #312728",
"J  c #232533",
"K  c #262837",
"L  c #22263D",
"P  c #252A3D",
"I  c #2C2D3F",
"U  c #3B3436",
"Y  c #412413",
"T  c #472E18",
"R  c #5E3D1E",
"E  c #452D21",
"W  c #463324",
"Q  c #483531",
"!  c #633A26",
"~  c #62411E",
"^  c #6C421A",
"/  c #1B2540",
"(  c #1F2944",
")  c #202741",
"_  c #252B44",
"`  c #292D46",
"'  c #272E4A",
"]  c #282F49",
"[  c #2C3245",
"{  c #2B324C",
"}  c #30374A",
"|  c #32394F",
" . c #2A3650",
".. c #363D53",
"X. c #383F59",
"o. c #384057",
"O. c #3D445B",
"+. c #3E4962",
"@. c #41475F",
"#. c #40485F",
"$. c #444D65",
"%. c #465167",
"&. c #47526E",
"*. c #4C536B",
"=. c #525B6C",
"-. c #475071",
";. c #4B5672",
":. c #4C5973",
">. c #4D5979",
",. c #505771",
"<. c #515B73",
"1. c #515C7A",
"2. c #54627C",
"3. c #8B5531",
"4. c #85593C",
"5. c #5A6585",
/* pixels */
"& [ | o.| O.$.$.$.$.%.,.*.,.,.1.>.:.=.X ",
"P ..| ........O.+.*.*.%.<.<.*.<.>.>.2.*.",
"' { [ { { | ..@.o.O.O...$.@.$.,.:.>.>.5.",
"` ' { { { { ..| _ / _ ( A ' %.,.:.:.5.>.",
"' ' { ' { { P n m M B M k ( +.-.*.:.1.:.",
"L S ) _ ` _ N b k b j j k S  .;.-.1.;.>.",
"A L L _ P K x c : 5 4 4 l v S %.*.;.-.;.",
"N S S L L I l 4 ; H U V : = A ) P b [ { ",
"B A F L L ` b i ! 3.4.s j , b m v N N M ",
"M n Z n n n F U Q E h < l * : 5 l v b M ",
"c l z 4 : * < 6 V 4 - * 4 = o ; b l j b ",
"< * * o * # < 4 - : * * = = = 5 J c l x ",
"2 2 4 * > O 4 z V 5 + : * : 4 b K n z x ",
"< 2 % < 4 * 4 F F 6 O < : 1 y c C z 4 z ",
"i G y % ; * : V z x 4 1 7 ; 5 @ 5 5 5 r ",
". g d a i V < 3 t x x u 0 4 x < r i t 9 ",
"$ X 6 p W f q 1 5 9 < 4 3 4 4 ; u r + @ ",
"2 2 x 6 g d s i 2 y y 3 9 @ 7 e 7 ; - < ",
"4 Z Z 6 6 i i 3 9 w u q 8 9 u Y @ @ - + ",
"  c 6 Z x n s y ~ ^ R T Y w % 9 r ; -   "
};
